<?xml version="1.0" encoding="UTF-8"?>
<svg width="22px" height="17px" viewBox="0 0 22 17" version="1.1" xmlns="http://www.w3.org/2000/svg" xmlns:xlink="http://www.w3.org/1999/xlink">
    <!-- Generator: Sketch 43.2 (39069) - http://www.bohemiancoding.com/sketch -->
    <title>menu_dropdown</title>
    <desc>Created with Sketch.</desc>
    <defs></defs>
    <g id="Page-1" stroke="none" stroke-width="1" fill="none" fill-rule="evenodd">
        <g id="menu_dropdown" transform="translate(1.000000, 1.000000)" stroke="#CF6909" fill="#DF8C3D">
            <path d="M1.34242245,0 L18.5701643,0 C18.5701643,0 20,0.356772119 20,1.5 C20,2.64322788 18.5701643,3 18.5701643,3 L1.34242245,3 C1.34242245,3 1.95993596e-13,2.6485632 0,1.5 C-1.9585675e-13,0.351436796 1.34242245,0 1.34242245,0 Z" id="Path"></path>
            <path d="M1.34242245,12 L18.5701643,12 C18.5701643,12 20,12.3567721 20,13.5 C20,14.6432279 18.5701643,15 18.5701643,15 L1.34242245,15 C1.34242245,15 1.95993596e-13,14.6485632 0,13.5 C-1.9585675e-13,12.3514368 1.34242245,12 1.34242245,12 Z" id="Path"></path>
            <path d="M1.34242245,6 L18.5701643,6 C18.5701643,6 20,6.35677212 20,7.5 C20,8.64322788 18.5701643,9 18.5701643,9 L1.34242245,9 C1.34242245,9 1.95993596e-13,8.6485632 0,7.5 C-1.9585675e-13,6.3514368 1.34242245,6 1.34242245,6 Z" id="Path"></path>
        </g>
    </g>
</svg>